<svg width="40" height="40" viewBox="0 0 40 40" fill="none" xmlns="http://www.w3.org/2000/svg">
<path d="M26.1644 11C26.6947 11 27.1332 11.1838 27.4799 11.5514C27.8266 11.9189 28 12.3946 28 12.9784V26.6973C28 27.2595 27.8266 27.7351 27.4799 28.1243C27.1332 28.4919 26.6947 28.6757 26.1644 28.6757C25.6342 28.6757 25.1957 28.4919 24.8489 28.1243C24.5226 27.7568 24.3493 27.2919 24.3289 26.7297C23.819 27.3568 23.1256 27.8973 22.2486 28.3514C21.392 28.7838 20.4844 29 19.5258 29C18.1185 29 16.8438 28.6216 15.7017 27.8649C14.5596 27.0865 13.652 26.0162 12.979 24.6541C12.3263 23.2919 12 21.7459 12 20.0162C12 18.2865 12.3263 16.7405 12.979 15.3784C13.6316 13.9946 14.5188 12.9243 15.6405 12.1676C16.7827 11.3892 18.037 11 19.4034 11C20.3824 11 21.3002 11.1946 22.1568 11.5838C23.0134 11.9514 23.7374 12.427 24.3289 13.0108V12.9784C24.3289 12.4162 24.5022 11.9514 24.8489 11.5838C25.1957 11.1946 25.6342 11 26.1644 11ZM19.9847 25.4324C21.3104 25.4324 22.3913 24.9243 23.2275 23.9081C24.0637 22.8703 24.4818 21.573 24.4818 20.0162C24.4818 18.4595 24.0637 17.1622 23.2275 16.1243C22.3913 15.0865 21.3104 14.5676 19.9847 14.5676C18.6794 14.5676 17.6087 15.0865 16.7725 16.1243C15.9363 17.1622 15.5182 18.4595 15.5182 20.0162C15.5182 21.573 15.9261 22.8703 16.7419 23.9081C17.5781 24.9243 18.659 25.4324 19.9847 25.4324Z" fill="#5243C2"/>
</svg>
