<svg xmlns="http://www.w3.org/2000/svg" width="20" height="20" fill="none"><g clip-path="url(#clip0_132_2521)"><path fill="#5243C2" d="M10 18.333a8.333 8.333 0 1 1 0-16.666 8.333 8.333 0 1 1 0 16.666m0-1.666a6.667 6.667 0 1 0 0-13.334 6.667 6.667 0 0 0 0 13.334m-4.167-5.834H7.5a2.5 2.5 0 1 0 5 0h1.667a4.167 4.167 0 1 1-8.334 0m.834-1.666a1.25 1.25 0 1 1 0-2.5 1.25 1.25 0 0 1 0 2.5m6.666 0a1.25 1.25 0 1 1 0-2.5 1.25 1.25 0 0 1 0 2.5"/></g><defs><clipPath id="clip0_132_2521"><path fill="#fff" d="M0 0h20v20H0z"/></clipPath></defs></svg>