<svg xmlns="http://www.w3.org/2000/svg" width="40" height="40" fill="none"><path fill="#5243C2" d="M26.164 11q.796 0 1.316.551.52.552.52 1.427v13.72q0 .842-.52 1.426-.52.552-1.316.552-.795 0-1.315-.552-.49-.55-.52-1.394-.765.94-2.08 1.621a5.96 5.96 0 0 1-2.723.649q-2.11 0-3.824-1.135-1.713-1.168-2.723-3.21-.98-2.045-.979-4.639 0-2.594.979-4.638.98-2.075 2.662-3.21A6.54 6.54 0 0 1 19.403 11q1.47 0 2.754.584 1.284.55 2.172 1.427v-.033q0-.843.52-1.394.52-.584 1.315-.584m-6.18 14.432q1.989 0 3.243-1.524 1.255-1.557 1.255-3.892t-1.255-3.892-3.242-1.556q-1.959 0-3.212 1.556-1.255 1.557-1.255 3.892t1.224 3.892q1.254 1.524 3.243 1.524"/></svg>