<svg xmlns="http://www.w3.org/2000/svg" width="16" height="16" fill="none"><g clip-path="url(#clip0_3_2460)"><path fill="#FF4D4F" d="M14 10.947v2.357a.667.667 0 0 1-.62.665q-.437.03-.713.031C6.775 14 2 9.225 2 3.333q0-.276.03-.713A.667.667 0 0 1 2.697 2h2.357a.333.333 0 0 1 .332.3q.024.229.043.368c.132.925.404 1.824.805 2.667a.304.304 0 0 1-.098.378L4.697 6.741a8.7 8.7 0 0 0 4.562 4.563l1.027-1.436a.31.31 0 0 1 .382-.1 9.3 9.3 0 0 0 3.033.847.333.333 0 0 1 .3.332z"/></g><defs><clipPath id="clip0_3_2460"><path fill="#fff" d="M0 0h16v16H0z"/></clipPath></defs></svg>