<svg xmlns="http://www.w3.org/2000/svg" width="20" height="20" fill="none"><g clip-path="url(#clip0_132_2535)"><path fill="#5243C2" d="M17.5 13.683v2.947a.833.833 0 0 1-.775.832q-.547.038-.892.038C8.47 17.5 2.5 11.53 2.5 4.167q0-.345.038-.892A.833.833 0 0 1 3.37 2.5h2.947a.417.417 0 0 1 .415.375q.028.287.053.46a11.6 11.6 0 0 0 1.007 3.334.38.38 0 0 1-.123.473L5.871 8.427a10.87 10.87 0 0 0 5.703 5.703l1.284-1.795a.385.385 0 0 1 .477-.124c1.054.5 2.178.84 3.333 1.004q.174.026.459.053a.417.417 0 0 1 .374.415z"/></g><defs><clipPath id="clip0_132_2535"><path fill="#fff" d="M0 0h20v20H0z"/></clipPath></defs></svg>