<svg xmlns="http://www.w3.org/2000/svg"><symbol id="clock" viewBox="0 0 16 16"><path d="M8 0C3.589 0 0 3.589 0 8s3.589 8 8 8 8-3.589 8-8-3.589-8-8-8m3.805 12.138a.665.665 0 0 1-.943 0L7.53 8.805a.66.66 0 0 1-.196-.472V4a.666.666 0 1 1 1.334 0v4.057l3.138 3.138c.26.261.26.682 0 .943"/></symbol><symbol id="weigth" viewBox="0 0 17 16"><path d="M15.775 1.525c-.41-.477-.955-.75-1.57-.682h-11.8C1.179.843.156 2.003.36 3.231l1.637 10.231c.137 1.023 1.024 1.705 2.047 1.705h8.594c1.023 0 1.91-.75 2.046-1.705L16.32 3.231a2.25 2.25 0 0 0-.545-1.706M9.772 9.71c-.204-.204-.409-.34-.682-.409l.546-2.728L8.272 6.3l-.614 2.933c-.273.068-.546.273-.819.477L3.43 6.368a6.793 6.793 0 0 1 9.617 0z"/></symbol><symbol id="calorie" viewBox="0 0 23 22"><path d="M13.417 1c-3.978 2.456-3.5 9.375-3.5 9.375s-1.75-.625-1.75-3.437c-2.088 1.297-3.5 3.79-3.5 6.562 0 4.142 3.134 7.5 7 7.5s7-3.358 7-7.5c0-6.094-5.25-7.344-5.25-12.5m-1.135 17.416c-1.407.375-2.832-.542-3.182-2.049s.505-3.033 1.912-3.41c3.396-.906 3.821-2.953 3.821-2.953s1.694 7.278-2.551 8.412"/></symbol></svg>