<svg xmlns="http://www.w3.org/2000/svg" width="17" height="16" fill="none"><g clip-path="url(#clip0_37_643)"><path fill="#fff" d="M15.775 1.525c-.41-.477-.955-.75-1.57-.682h-11.8C1.179.843.156 2.003.36 3.231l1.637 10.231c.137 1.023 1.024 1.705 2.047 1.705h8.594c1.023 0 1.91-.75 2.046-1.705L16.32 3.231a2.25 2.25 0 0 0-.545-1.706M9.772 9.71c-.204-.204-.409-.34-.682-.409l.546-2.728L8.272 6.3l-.614 2.933c-.273.068-.546.273-.819.477L3.43 6.368a6.793 6.793 0 0 1 9.617 0z"/></g><defs><clipPath id="clip0_37_643"><path fill="#fff" d="M.333 0h16v16h-16z"/></clipPath></defs></svg>